<svg xmlns="http://www.w3.org/2000/svg" viewBox="0 0 64 64"><path fill="#222" d="M31.544,12.932a1.5,1.5,0,0,1,1.5-1.5h18.87a1.5,1.5,0,0,1,0,3H33.044A1.5,1.5,0,0,1,31.544,12.932Zm20.37,4.841H29.044a1.5,1.5,0,0,0,0,3h22.87a1.5,1.5,0,0,0,0-3Zm0,10.727H33.044a1.5,1.5,0,1,0,0,3h18.87a1.5,1.5,0,0,0,0-3Zm0,6.343H29.044a1.5,1.5,0,1,0,0,3h22.87a1.5,1.5,0,0,0,0-3ZM20.77,26.16H12.09a1.5,1.5,0,0,0-1.5,1.5v8.68a1.5,1.5,0,0,0,1.5,1.5h8.68a1.5,1.5,0,0,0,1.5-1.5V27.66A1.5,1.5,0,0,0,20.77,26.16Zm0-17.07H12.09a1.5,1.5,0,0,0-1.5,1.5v8.68a1.5,1.5,0,0,0,1.5,1.5h8.68a1.5,1.5,0,0,0,1.5-1.5V10.59A1.5,1.5,0,0,0,20.77,9.09Zm0,34.14H12.09a1.5,1.5,0,0,0-1.5,1.5v8.68a1.5,1.5,0,0,0,1.5,1.5h8.68a1.5,1.5,0,0,0,1.5-1.5V44.73A1.5,1.5,0,0,0,20.77,43.23Zm31.144,2.338H33.044a1.5,1.5,0,1,0,0,3h18.87a1.5,1.5,0,0,0,0-3Zm0,6.343H29.044a1.5,1.5,0,1,0,0,3h22.87a1.5,1.5,0,0,0,0-3Z"/></svg>