<svg xmlns="http://www.w3.org/2000/svg" data-name="Layer 1" viewBox="0 0 24 24"><path fill="#7fbde7" d="M12,18.75A6.75,6.75,0,1,1,18.75,12,6.758,6.758,0,0,1,12,18.75Zm0-12A5.25,5.25,0,1,0,17.25,12,5.256,5.256,0,0,0,12,6.75Z"/><path fill="#7fbde7" d="M14,12.75H12a.75.75,0,0,1-.75-.75V9a.75.75,0,0,1,1.5,0v2.25H14a.75.75,0,0,1,0,1.5Z"/><path fill="#232323" d="M22 12.75a.75.75 0 01-.75-.75A9.25 9.25 0 005.459 5.459a9.427 9.427 0 00-.862.993.75.75 0 01-1.2-.9 11.235 11.235 0 011-1.15A10.75 10.75 0 0122.75 12 .75.75 0 0122 12.75zM12 22.75A10.748 10.748 0 011.25 12a.75.75 0 011.5 0 9.25 9.25 0 0015.791 6.541 9.331 9.331 0 00.861-.992.751.751 0 011.2.9 11.087 11.087 0 01-1 1.151A10.684 10.684 0 0112 22.75z"/><path fill="#232323" d="M20.485 21.235a.75.75 0 01-.75-.75V18.407H17.656a.75.75 0 010-1.5h2.829a.75.75 0 01.75.75v2.828A.75.75 0 0120.485 21.235zM6.343 7.093H3.515a.75.75 0 01-.75-.75V3.515a.75.75 0 011.5 0V5.593H6.343a.75.75 0 010 1.5z"/></svg>